<svg xmlns="http://www.w3.org/2000/svg" width="121.224" height="128.001" viewBox="0 0 121.224 128.001">
  <g id="Group_258" data-name="Group 258" transform="translate(-34.085 -183.298)" opacity="0.2">
    <g id="Group_250" data-name="Group 250" transform="translate(35.085 184.298)">
      <circle id="Ellipse_34" data-name="Ellipse 34" cx="2.692" cy="2.692" r="2.692" fill="none" stroke="#fff" stroke-linecap="round" stroke-linejoin="round" stroke-width="2"/>
      <path id="Path_315" data-name="Path 315" d="M37.777,198.627a2.692,2.692,0,1,1,2.693-2.691A2.69,2.69,0,0,1,37.777,198.627Z" transform="translate(-35.085 -176.011)" fill="none" stroke="#fff" stroke-linecap="round" stroke-linejoin="round" stroke-width="2"/>
      <circle id="Ellipse_35" data-name="Ellipse 35" cx="2.692" cy="2.692" r="2.692" transform="translate(0 34.462)" fill="none" stroke="#fff" stroke-linecap="round" stroke-linejoin="round" stroke-width="2"/>
      <circle id="Ellipse_36" data-name="Ellipse 36" cx="2.692" cy="2.692" r="2.692" transform="translate(0 51.693)" fill="none" stroke="#fff" stroke-linecap="round" stroke-linejoin="round" stroke-width="2"/>
      <circle id="Ellipse_37" data-name="Ellipse 37" cx="2.692" cy="2.692" r="2.692" transform="translate(0 68.924)" fill="none" stroke="#fff" stroke-linecap="round" stroke-linejoin="round" stroke-width="2"/>
      <circle id="Ellipse_38" data-name="Ellipse 38" cx="2.692" cy="2.692" r="2.692" transform="translate(0 86.154)" fill="none" stroke="#fff" stroke-linecap="round" stroke-linejoin="round" stroke-width="2"/>
      <path id="Path_316" data-name="Path 316" d="M37.777,243.348a2.692,2.692,0,1,1,2.693-2.693A2.692,2.692,0,0,1,37.777,243.348Z" transform="translate(-35.085 -134.577)" fill="none" stroke="#fff" stroke-linecap="round" stroke-linejoin="round" stroke-width="2"/>
      <circle id="Ellipse_39" data-name="Ellipse 39" cx="2.692" cy="2.692" r="2.692" transform="translate(0 120.616)" fill="none" stroke="#fff" stroke-linecap="round" stroke-linejoin="round" stroke-width="2"/>
    </g>
    <g id="Group_251" data-name="Group 251" transform="translate(51.348 184.298)">
      <circle id="Ellipse_40" data-name="Ellipse 40" cx="2.692" cy="2.692" r="2.692" transform="translate(0)" fill="none" stroke="#fff" stroke-linecap="round" stroke-linejoin="round" stroke-width="2"/>
      <path id="Path_317" data-name="Path 317" d="M46.22,198.627a2.692,2.692,0,1,1,2.691-2.691A2.692,2.692,0,0,1,46.22,198.627Z" transform="translate(-43.527 -176.011)" fill="none" stroke="#fff" stroke-linecap="round" stroke-linejoin="round" stroke-width="2"/>
      <circle id="Ellipse_41" data-name="Ellipse 41" cx="2.692" cy="2.692" r="2.692" transform="translate(0 34.462)" fill="none" stroke="#fff" stroke-linecap="round" stroke-linejoin="round" stroke-width="2"/>
      <circle id="Ellipse_42" data-name="Ellipse 42" cx="2.692" cy="2.692" r="2.692" transform="translate(0 51.693)" fill="none" stroke="#fff" stroke-linecap="round" stroke-linejoin="round" stroke-width="2"/>
      <circle id="Ellipse_43" data-name="Ellipse 43" cx="2.692" cy="2.692" r="2.692" transform="translate(0 68.924)" fill="none" stroke="#fff" stroke-linecap="round" stroke-linejoin="round" stroke-width="2"/>
      <circle id="Ellipse_44" data-name="Ellipse 44" cx="2.692" cy="2.692" r="2.692" transform="translate(0 86.154)" fill="none" stroke="#fff" stroke-linecap="round" stroke-linejoin="round" stroke-width="2"/>
      <path id="Path_318" data-name="Path 318" d="M46.22,243.348a2.692,2.692,0,1,1,2.691-2.693A2.693,2.693,0,0,1,46.22,243.348Z" transform="translate(-43.527 -134.577)" fill="none" stroke="#fff" stroke-linecap="round" stroke-linejoin="round" stroke-width="2"/>
    </g>
    <g id="Group_252" data-name="Group 252" transform="translate(67.611 184.298)">
      <circle id="Ellipse_45" data-name="Ellipse 45" cx="2.692" cy="2.692" r="2.692" fill="none" stroke="#fff" stroke-linecap="round" stroke-linejoin="round" stroke-width="2"/>
      <path id="Path_319" data-name="Path 319" d="M54.66,198.627a2.692,2.692,0,1,1,2.693-2.691A2.69,2.69,0,0,1,54.66,198.627Z" transform="translate(-51.968 -176.011)" fill="none" stroke="#fff" stroke-linecap="round" stroke-linejoin="round" stroke-width="2"/>
      <circle id="Ellipse_46" data-name="Ellipse 46" cx="2.692" cy="2.692" r="2.692" transform="translate(0 34.462)" fill="none" stroke="#fff" stroke-linecap="round" stroke-linejoin="round" stroke-width="2"/>
      <circle id="Ellipse_47" data-name="Ellipse 47" cx="2.692" cy="2.692" r="2.692" transform="translate(0 51.693)" fill="none" stroke="#fff" stroke-linecap="round" stroke-linejoin="round" stroke-width="2"/>
      <circle id="Ellipse_48" data-name="Ellipse 48" cx="2.692" cy="2.692" r="2.692" transform="translate(0 68.924)" fill="none" stroke="#fff" stroke-linecap="round" stroke-linejoin="round" stroke-width="2"/>
      <circle id="Ellipse_49" data-name="Ellipse 49" cx="2.692" cy="2.692" r="2.692" transform="translate(0 86.154)" fill="none" stroke="#fff" stroke-linecap="round" stroke-linejoin="round" stroke-width="2"/>
    </g>
    <g id="Group_253" data-name="Group 253" transform="translate(83.873 184.298)">
      <circle id="Ellipse_50" data-name="Ellipse 50" cx="2.692" cy="2.692" r="2.692" transform="translate(0.001)" fill="none" stroke="#fff" stroke-linecap="round" stroke-linejoin="round" stroke-width="2"/>
      <path id="Path_320" data-name="Path 320" d="M63.1,198.627a2.692,2.692,0,1,1,2.691-2.691A2.692,2.692,0,0,1,63.1,198.627Z" transform="translate(-60.41 -176.011)" fill="none" stroke="#fff" stroke-linecap="round" stroke-linejoin="round" stroke-width="2"/>
      <circle id="Ellipse_51" data-name="Ellipse 51" cx="2.692" cy="2.692" r="2.692" transform="translate(0.001 34.462)" fill="none" stroke="#fff" stroke-linecap="round" stroke-linejoin="round" stroke-width="2"/>
      <circle id="Ellipse_52" data-name="Ellipse 52" cx="2.692" cy="2.692" r="2.692" transform="translate(0.001 51.693)" fill="none" stroke="#fff" stroke-linecap="round" stroke-linejoin="round" stroke-width="2"/>
      <circle id="Ellipse_53" data-name="Ellipse 53" cx="2.692" cy="2.692" r="2.692" transform="translate(0.001 68.924)" fill="none" stroke="#fff" stroke-linecap="round" stroke-linejoin="round" stroke-width="2"/>
    </g>
    <g id="Group_254" data-name="Group 254" transform="translate(100.136 184.298)">
      <circle id="Ellipse_54" data-name="Ellipse 54" cx="2.692" cy="2.692" r="2.692" fill="none" stroke="#fff" stroke-linecap="round" stroke-linejoin="round" stroke-width="2"/>
      <path id="Path_321" data-name="Path 321" d="M71.543,198.627a2.692,2.692,0,1,1,2.693-2.691A2.691,2.691,0,0,1,71.543,198.627Z" transform="translate(-68.852 -176.011)" fill="none" stroke="#fff" stroke-linecap="round" stroke-linejoin="round" stroke-width="2"/>
      <circle id="Ellipse_55" data-name="Ellipse 55" cx="2.692" cy="2.692" r="2.692" transform="translate(0 34.462)" fill="none" stroke="#fff" stroke-linecap="round" stroke-linejoin="round" stroke-width="2"/>
      <circle id="Ellipse_56" data-name="Ellipse 56" cx="2.692" cy="2.692" r="2.692" transform="translate(0 51.693)" fill="none" stroke="#fff" stroke-linecap="round" stroke-linejoin="round" stroke-width="2"/>
    </g>
    <g id="Group_255" data-name="Group 255" transform="translate(116.398 184.298)">
      <path id="Path_322" data-name="Path 322" d="M79.986,189.683a2.692,2.692,0,1,1,2.693-2.693A2.693,2.693,0,0,1,79.986,189.683Z" transform="translate(-77.293 -184.298)" fill="none" stroke="#fff" stroke-linecap="round" stroke-linejoin="round" stroke-width="2"/>
      <path id="Path_323" data-name="Path 323" d="M79.986,198.627a2.692,2.692,0,1,1,2.693-2.691A2.692,2.692,0,0,1,79.986,198.627Z" transform="translate(-77.293 -176.011)" fill="none" stroke="#fff" stroke-linecap="round" stroke-linejoin="round" stroke-width="2"/>
      <path id="Path_324" data-name="Path 324" d="M79.986,207.571a2.692,2.692,0,1,1,2.693-2.691A2.692,2.692,0,0,1,79.986,207.571Z" transform="translate(-77.293 -167.725)" fill="none" stroke="#fff" stroke-linecap="round" stroke-linejoin="round" stroke-width="2"/>
    </g>
    <g id="Group_256" data-name="Group 256" transform="translate(132.662 184.298)">
      <path id="Path_325" data-name="Path 325" d="M88.428,189.683a2.692,2.692,0,1,1,2.691-2.693A2.693,2.693,0,0,1,88.428,189.683Z" transform="translate(-85.735 -184.298)" fill="none" stroke="#fff" stroke-linecap="round" stroke-linejoin="round" stroke-width="2"/>
      <path id="Path_326" data-name="Path 326" d="M88.428,198.627a2.692,2.692,0,1,1,2.691-2.691A2.692,2.692,0,0,1,88.428,198.627Z" transform="translate(-85.735 -176.011)" fill="none" stroke="#fff" stroke-linecap="round" stroke-linejoin="round" stroke-width="2"/>
    </g>
    <g id="Group_257" data-name="Group 257" transform="translate(148.925 184.298)">
      <path id="Path_327" data-name="Path 327" d="M96.868,189.683a2.692,2.692,0,1,1,2.693-2.693A2.692,2.692,0,0,1,96.868,189.683Z" transform="translate(-94.177 -184.298)" fill="none" stroke="#fff" stroke-linecap="round" stroke-linejoin="round" stroke-width="2"/>
    </g>
  </g>
</svg>
