<svg xmlns="http://www.w3.org/2000/svg" width="121.225" height="128.001" viewBox="0 0 121.225 128.001">
  <g id="Group_259" data-name="Group 259" transform="translate(1 1)" opacity="0.2">
    <g id="Group_250" data-name="Group 250" transform="translate(113.839)">
      <ellipse id="Ellipse_34" data-name="Ellipse 34" cx="2.692" cy="2.692" rx="2.692" ry="2.692" transform="translate(0.001 120.616)" fill="none" stroke="#fff" stroke-linecap="round" stroke-linejoin="round" stroke-width="2"/>
      <path id="Path_315" data-name="Path 315" d="M37.779,193.242a2.692,2.692,0,1,1-2.693,2.691A2.69,2.69,0,0,1,37.779,193.242Z" transform="translate(-35.086 -89.856)" fill="none" stroke="#fff" stroke-linecap="round" stroke-linejoin="round" stroke-width="2"/>
      <ellipse id="Ellipse_35" data-name="Ellipse 35" cx="2.692" cy="2.692" rx="2.692" ry="2.692" transform="translate(0.001 86.154)" fill="none" stroke="#fff" stroke-linecap="round" stroke-linejoin="round" stroke-width="2"/>
      <ellipse id="Ellipse_36" data-name="Ellipse 36" cx="2.692" cy="2.692" rx="2.692" ry="2.692" transform="translate(0.001 68.924)" fill="none" stroke="#fff" stroke-linecap="round" stroke-linejoin="round" stroke-width="2"/>
      <ellipse id="Ellipse_37" data-name="Ellipse 37" cx="2.692" cy="2.692" rx="2.692" ry="2.692" transform="translate(0.001 51.693)" fill="none" stroke="#fff" stroke-linecap="round" stroke-linejoin="round" stroke-width="2"/>
      <ellipse id="Ellipse_38" data-name="Ellipse 38" cx="2.692" cy="2.692" rx="2.692" ry="2.692" transform="translate(0.001 34.462)" fill="none" stroke="#fff" stroke-linecap="round" stroke-linejoin="round" stroke-width="2"/>
      <path id="Path_316" data-name="Path 316" d="M37.779,237.963a2.692,2.692,0,1,1-2.693,2.693A2.692,2.692,0,0,1,37.779,237.963Z" transform="translate(-35.086 -220.732)" fill="none" stroke="#fff" stroke-linecap="round" stroke-linejoin="round" stroke-width="2"/>
      <ellipse id="Ellipse_39" data-name="Ellipse 39" cx="2.692" cy="2.692" rx="2.692" ry="2.692" transform="translate(0.001 0)" fill="none" stroke="#fff" stroke-linecap="round" stroke-linejoin="round" stroke-width="2"/>
    </g>
    <g id="Group_251" data-name="Group 251" transform="translate(97.577 17.231)">
      <ellipse id="Ellipse_40" data-name="Ellipse 40" cx="2.692" cy="2.692" rx="2.692" ry="2.692" transform="translate(0 103.386)" fill="none" stroke="#fff" stroke-linecap="round" stroke-linejoin="round" stroke-width="2"/>
      <path id="Path_317" data-name="Path 317" d="M46.218,193.242a2.692,2.692,0,1,1-2.691,2.691A2.692,2.692,0,0,1,46.218,193.242Z" transform="translate(-43.527 -107.087)" fill="none" stroke="#fff" stroke-linecap="round" stroke-linejoin="round" stroke-width="2"/>
      <ellipse id="Ellipse_41" data-name="Ellipse 41" cx="2.692" cy="2.692" rx="2.692" ry="2.692" transform="translate(0 68.924)" fill="none" stroke="#fff" stroke-linecap="round" stroke-linejoin="round" stroke-width="2"/>
      <ellipse id="Ellipse_42" data-name="Ellipse 42" cx="2.692" cy="2.692" rx="2.692" ry="2.692" transform="translate(0 51.693)" fill="none" stroke="#fff" stroke-linecap="round" stroke-linejoin="round" stroke-width="2"/>
      <ellipse id="Ellipse_43" data-name="Ellipse 43" cx="2.692" cy="2.692" rx="2.692" ry="2.692" transform="translate(0 34.462)" fill="none" stroke="#fff" stroke-linecap="round" stroke-linejoin="round" stroke-width="2"/>
      <ellipse id="Ellipse_44" data-name="Ellipse 44" cx="2.692" cy="2.692" rx="2.692" ry="2.692" transform="translate(0 17.231)" fill="none" stroke="#fff" stroke-linecap="round" stroke-linejoin="round" stroke-width="2"/>
      <path id="Path_318" data-name="Path 318" d="M46.218,237.963a2.692,2.692,0,1,1-2.691,2.693A2.693,2.693,0,0,1,46.218,237.963Z" transform="translate(-43.527 -237.963)" fill="none" stroke="#fff" stroke-linecap="round" stroke-linejoin="round" stroke-width="2"/>
    </g>
    <g id="Group_252" data-name="Group 252" transform="translate(81.314 34.462)">
      <ellipse id="Ellipse_45" data-name="Ellipse 45" cx="2.692" cy="2.692" rx="2.692" ry="2.692" transform="translate(0.001 86.154)" fill="none" stroke="#fff" stroke-linecap="round" stroke-linejoin="round" stroke-width="2"/>
      <path id="Path_319" data-name="Path 319" d="M54.662,193.242a2.692,2.692,0,1,1-2.693,2.691A2.69,2.69,0,0,1,54.662,193.242Z" transform="translate(-51.969 -124.318)" fill="none" stroke="#fff" stroke-linecap="round" stroke-linejoin="round" stroke-width="2"/>
      <ellipse id="Ellipse_46" data-name="Ellipse 46" cx="2.692" cy="2.692" rx="2.692" ry="2.692" transform="translate(0.001 51.693)" fill="none" stroke="#fff" stroke-linecap="round" stroke-linejoin="round" stroke-width="2"/>
      <ellipse id="Ellipse_47" data-name="Ellipse 47" cx="2.692" cy="2.692" rx="2.692" ry="2.692" transform="translate(0.001 34.462)" fill="none" stroke="#fff" stroke-linecap="round" stroke-linejoin="round" stroke-width="2"/>
      <ellipse id="Ellipse_48" data-name="Ellipse 48" cx="2.692" cy="2.692" rx="2.692" ry="2.692" transform="translate(0.001 17.231)" fill="none" stroke="#fff" stroke-linecap="round" stroke-linejoin="round" stroke-width="2"/>
      <ellipse id="Ellipse_49" data-name="Ellipse 49" cx="2.692" cy="2.692" rx="2.692" ry="2.692" transform="translate(0.001 0)" fill="none" stroke="#fff" stroke-linecap="round" stroke-linejoin="round" stroke-width="2"/>
    </g>
    <g id="Group_253" data-name="Group 253" transform="translate(65.052 51.693)">
      <ellipse id="Ellipse_50" data-name="Ellipse 50" cx="2.692" cy="2.692" rx="2.692" ry="2.692" transform="translate(0 68.924)" fill="none" stroke="#fff" stroke-linecap="round" stroke-linejoin="round" stroke-width="2"/>
      <path id="Path_320" data-name="Path 320" d="M63.1,193.242a2.692,2.692,0,1,1-2.691,2.691A2.692,2.692,0,0,1,63.1,193.242Z" transform="translate(-60.409 -141.549)" fill="none" stroke="#fff" stroke-linecap="round" stroke-linejoin="round" stroke-width="2"/>
      <ellipse id="Ellipse_51" data-name="Ellipse 51" cx="2.692" cy="2.692" rx="2.692" ry="2.692" transform="translate(0 34.462)" fill="none" stroke="#fff" stroke-linecap="round" stroke-linejoin="round" stroke-width="2"/>
      <ellipse id="Ellipse_52" data-name="Ellipse 52" cx="2.692" cy="2.692" rx="2.692" ry="2.692" transform="translate(0 17.231)" fill="none" stroke="#fff" stroke-linecap="round" stroke-linejoin="round" stroke-width="2"/>
      <ellipse id="Ellipse_53" data-name="Ellipse 53" cx="2.692" cy="2.692" rx="2.692" ry="2.692" transform="translate(0 0)" fill="none" stroke="#fff" stroke-linecap="round" stroke-linejoin="round" stroke-width="2"/>
    </g>
    <g id="Group_254" data-name="Group 254" transform="translate(48.789 68.924)">
      <ellipse id="Ellipse_54" data-name="Ellipse 54" cx="2.692" cy="2.692" rx="2.692" ry="2.692" transform="translate(0 51.693)" fill="none" stroke="#fff" stroke-linecap="round" stroke-linejoin="round" stroke-width="2"/>
      <path id="Path_321" data-name="Path 321" d="M71.545,193.242a2.692,2.692,0,1,1-2.693,2.691A2.691,2.691,0,0,1,71.545,193.242Z" transform="translate(-68.852 -158.78)" fill="none" stroke="#fff" stroke-linecap="round" stroke-linejoin="round" stroke-width="2"/>
      <ellipse id="Ellipse_55" data-name="Ellipse 55" cx="2.692" cy="2.692" rx="2.692" ry="2.692" transform="translate(0 17.231)" fill="none" stroke="#fff" stroke-linecap="round" stroke-linejoin="round" stroke-width="2"/>
      <ellipse id="Ellipse_56" data-name="Ellipse 56" cx="2.692" cy="2.692" rx="2.692" ry="2.692" transform="translate(0 0)" fill="none" stroke="#fff" stroke-linecap="round" stroke-linejoin="round" stroke-width="2"/>
    </g>
    <g id="Group_255" data-name="Group 255" transform="translate(32.525 86.155)">
      <path id="Path_322" data-name="Path 322" d="M79.986,184.3a2.692,2.692,0,1,1-2.693,2.693A2.693,2.693,0,0,1,79.986,184.3Z" transform="translate(-77.293 -149.837)" fill="none" stroke="#fff" stroke-linecap="round" stroke-linejoin="round" stroke-width="2"/>
      <path id="Path_323" data-name="Path 323" d="M79.986,193.242a2.692,2.692,0,1,1-2.693,2.691A2.692,2.692,0,0,1,79.986,193.242Z" transform="translate(-77.293 -176.011)" fill="none" stroke="#fff" stroke-linecap="round" stroke-linejoin="round" stroke-width="2"/>
      <path id="Path_324" data-name="Path 324" d="M79.986,202.186a2.692,2.692,0,1,1-2.693,2.691A2.692,2.692,0,0,1,79.986,202.186Z" transform="translate(-77.293 -202.186)" fill="none" stroke="#fff" stroke-linecap="round" stroke-linejoin="round" stroke-width="2"/>
    </g>
    <g id="Group_256" data-name="Group 256" transform="translate(16.264 103.386)">
      <path id="Path_325" data-name="Path 325" d="M88.426,184.3a2.692,2.692,0,1,1-2.691,2.693A2.693,2.693,0,0,1,88.426,184.3Z" transform="translate(-85.735 -167.067)" fill="none" stroke="#fff" stroke-linecap="round" stroke-linejoin="round" stroke-width="2"/>
      <path id="Path_326" data-name="Path 326" d="M88.426,193.242a2.692,2.692,0,1,1-2.691,2.691A2.692,2.692,0,0,1,88.426,193.242Z" transform="translate(-85.735 -193.242)" fill="none" stroke="#fff" stroke-linecap="round" stroke-linejoin="round" stroke-width="2"/>
    </g>
    <g id="Group_257" data-name="Group 257" transform="translate(0 120.616)">
      <path id="Path_327" data-name="Path 327" d="M96.87,184.3a2.692,2.692,0,1,1-2.693,2.693A2.692,2.692,0,0,1,96.87,184.3Z" transform="translate(-94.177 -184.298)" fill="none" stroke="#fff" stroke-linecap="round" stroke-linejoin="round" stroke-width="2"/>
    </g>
  </g>
</svg>
