<svg xmlns="http://www.w3.org/2000/svg" width="113.291" height="107.198" viewBox="0 0 113.291 107.198">
  <g id="Group_41" data-name="Group 41" transform="translate(-450.608 -328.272)">
    <g id="Group_33" data-name="Group 33">
      <path id="Path_64" data-name="Path 64" d="M486.435,433.05a2.421,2.421,0,1,1-2.421-2.421A2.42,2.42,0,0,1,486.435,433.05Z" fill="#fff"/>
      <path id="Path_65" data-name="Path 65" d="M501.928,433.05a2.421,2.421,0,1,1-2.421-2.421A2.42,2.42,0,0,1,501.928,433.05Z" fill="#fff"/>
      <path id="Path_66" data-name="Path 66" d="M517.421,433.05A2.421,2.421,0,1,1,515,430.629,2.42,2.42,0,0,1,517.421,433.05Z" fill="#fff"/>
      <path id="Path_67" data-name="Path 67" d="M532.914,433.05a2.421,2.421,0,1,1-2.421-2.421A2.42,2.42,0,0,1,532.914,433.05Z" fill="#fff"/>
    </g>
    <g id="Group_34" data-name="Group 34">
      <path id="Path_68" data-name="Path 68" d="M470.942,418.427a2.42,2.42,0,1,1-2.421-2.421A2.421,2.421,0,0,1,470.942,418.427Z" fill="#fff"/>
      <path id="Path_69" data-name="Path 69" d="M486.435,418.427a2.421,2.421,0,1,1-2.421-2.421A2.421,2.421,0,0,1,486.435,418.427Z" fill="#fff"/>
      <path id="Path_70" data-name="Path 70" d="M501.928,418.427a2.421,2.421,0,1,1-2.421-2.421A2.421,2.421,0,0,1,501.928,418.427Z" fill="#fff"/>
      <path id="Path_71" data-name="Path 71" d="M517.421,418.427A2.421,2.421,0,1,1,515,416.006,2.421,2.421,0,0,1,517.421,418.427Z" fill="#fff"/>
      <path id="Path_72" data-name="Path 72" d="M532.914,418.427a2.421,2.421,0,1,1-2.421-2.421A2.421,2.421,0,0,1,532.914,418.427Z" fill="#fff"/>
      <path id="Path_73" data-name="Path 73" d="M548.406,418.427a2.421,2.421,0,1,1-2.42-2.421A2.42,2.42,0,0,1,548.406,418.427Z" fill="#fff"/>
    </g>
    <g id="Group_35" data-name="Group 35">
      <path id="Path_74" data-name="Path 74" d="M470.942,403.8a2.42,2.42,0,1,1-2.421-2.421A2.421,2.421,0,0,1,470.942,403.8Z" fill="#fff"/>
      <path id="Path_75" data-name="Path 75" d="M486.435,403.8a2.421,2.421,0,1,1-2.421-2.421A2.421,2.421,0,0,1,486.435,403.8Z" fill="#fff"/>
      <path id="Path_76" data-name="Path 76" d="M501.928,403.8a2.421,2.421,0,1,1-2.421-2.421A2.421,2.421,0,0,1,501.928,403.8Z" fill="#fff"/>
      <path id="Path_77" data-name="Path 77" d="M517.421,403.8A2.421,2.421,0,1,1,515,401.384,2.421,2.421,0,0,1,517.421,403.8Z" fill="#fff"/>
      <path id="Path_78" data-name="Path 78" d="M532.914,403.8a2.421,2.421,0,1,1-2.421-2.421A2.421,2.421,0,0,1,532.914,403.8Z" fill="#fff"/>
      <path id="Path_79" data-name="Path 79" d="M548.406,403.8a2.421,2.421,0,1,1-2.42-2.421A2.42,2.42,0,0,1,548.406,403.8Z" fill="#fff"/>
    </g>
    <g id="Group_36" data-name="Group 36">
      <path id="Path_80" data-name="Path 80" d="M455.449,389.182a2.421,2.421,0,1,1-2.42-2.42A2.421,2.421,0,0,1,455.449,389.182Z" fill="#fff"/>
      <path id="Path_81" data-name="Path 81" d="M470.942,389.182a2.42,2.42,0,1,1-2.421-2.42A2.421,2.421,0,0,1,470.942,389.182Z" fill="#fff"/>
      <path id="Path_82" data-name="Path 82" d="M486.435,389.182a2.421,2.421,0,1,1-2.421-2.42A2.421,2.421,0,0,1,486.435,389.182Z" fill="#fff"/>
      <path id="Path_83" data-name="Path 83" d="M501.928,389.182a2.421,2.421,0,1,1-2.421-2.42A2.421,2.421,0,0,1,501.928,389.182Z" fill="#fff"/>
      <path id="Path_84" data-name="Path 84" d="M517.421,389.182a2.421,2.421,0,1,1-2.421-2.42A2.421,2.421,0,0,1,517.421,389.182Z" fill="#fff"/>
      <path id="Path_85" data-name="Path 85" d="M532.914,389.182a2.421,2.421,0,1,1-2.421-2.42A2.421,2.421,0,0,1,532.914,389.182Z" fill="#fff"/>
      <path id="Path_86" data-name="Path 86" d="M548.406,389.182a2.421,2.421,0,1,1-2.42-2.42A2.42,2.42,0,0,1,548.406,389.182Z" fill="#fff"/>
      <circle id="Ellipse_26" data-name="Ellipse 26" cx="2.421" cy="2.421" r="2.421" transform="translate(559.058 386.762)" fill="#fff"/>
    </g>
    <g id="Group_37" data-name="Group 37">
      <path id="Path_87" data-name="Path 87" d="M455.449,374.56a2.421,2.421,0,1,1-2.42-2.421A2.421,2.421,0,0,1,455.449,374.56Z" fill="#fff"/>
      <path id="Path_88" data-name="Path 88" d="M470.942,374.56a2.42,2.42,0,1,1-2.421-2.421A2.421,2.421,0,0,1,470.942,374.56Z" fill="#fff"/>
      <path id="Path_89" data-name="Path 89" d="M486.435,374.56a2.421,2.421,0,1,1-2.421-2.421A2.421,2.421,0,0,1,486.435,374.56Z" fill="#fff"/>
      <path id="Path_90" data-name="Path 90" d="M501.928,374.56a2.421,2.421,0,1,1-2.421-2.421A2.421,2.421,0,0,1,501.928,374.56Z" fill="#fff"/>
      <path id="Path_91" data-name="Path 91" d="M517.421,374.56A2.421,2.421,0,1,1,515,372.139,2.421,2.421,0,0,1,517.421,374.56Z" fill="#fff"/>
      <path id="Path_92" data-name="Path 92" d="M532.914,374.56a2.421,2.421,0,1,1-2.421-2.421A2.421,2.421,0,0,1,532.914,374.56Z" fill="#fff"/>
      <path id="Path_93" data-name="Path 93" d="M548.406,374.56a2.421,2.421,0,1,1-2.42-2.421A2.42,2.42,0,0,1,548.406,374.56Z" fill="#fff"/>
      <path id="Path_94" data-name="Path 94" d="M563.9,374.56a2.421,2.421,0,1,1-2.42-2.421A2.42,2.42,0,0,1,563.9,374.56Z" fill="#fff"/>
    </g>
    <g id="Group_38" data-name="Group 38">
      <path id="Path_95" data-name="Path 95" d="M470.942,359.938a2.42,2.42,0,1,1-2.421-2.421A2.42,2.42,0,0,1,470.942,359.938Z" fill="#fff"/>
      <path id="Path_96" data-name="Path 96" d="M486.435,359.938a2.421,2.421,0,1,1-2.421-2.421A2.42,2.42,0,0,1,486.435,359.938Z" fill="#fff"/>
      <path id="Path_97" data-name="Path 97" d="M501.928,359.938a2.421,2.421,0,1,1-2.421-2.421A2.42,2.42,0,0,1,501.928,359.938Z" fill="#fff"/>
      <path id="Path_98" data-name="Path 98" d="M517.421,359.938A2.421,2.421,0,1,1,515,357.517,2.42,2.42,0,0,1,517.421,359.938Z" fill="#fff"/>
      <path id="Path_99" data-name="Path 99" d="M532.914,359.938a2.421,2.421,0,1,1-2.421-2.421A2.42,2.42,0,0,1,532.914,359.938Z" fill="#fff"/>
      <path id="Path_100" data-name="Path 100" d="M548.406,359.938a2.421,2.421,0,1,1-2.42-2.421A2.419,2.419,0,0,1,548.406,359.938Z" fill="#fff"/>
    </g>
    <g id="Group_39" data-name="Group 39">
      <path id="Path_101" data-name="Path 101" d="M470.942,345.315a2.42,2.42,0,1,1-2.421-2.42A2.421,2.421,0,0,1,470.942,345.315Z" fill="#fff"/>
      <path id="Path_102" data-name="Path 102" d="M486.435,345.315a2.421,2.421,0,1,1-2.421-2.42A2.421,2.421,0,0,1,486.435,345.315Z" fill="#fff"/>
      <path id="Path_103" data-name="Path 103" d="M501.928,345.315a2.421,2.421,0,1,1-2.421-2.42A2.421,2.421,0,0,1,501.928,345.315Z" fill="#fff"/>
      <path id="Path_104" data-name="Path 104" d="M517.421,345.315a2.421,2.421,0,1,1-2.421-2.42A2.421,2.421,0,0,1,517.421,345.315Z" fill="#fff"/>
      <path id="Path_105" data-name="Path 105" d="M532.914,345.315a2.421,2.421,0,1,1-2.421-2.42A2.421,2.421,0,0,1,532.914,345.315Z" fill="#fff"/>
      <path id="Path_106" data-name="Path 106" d="M548.406,345.315a2.421,2.421,0,1,1-2.42-2.42A2.42,2.42,0,0,1,548.406,345.315Z" fill="#fff"/>
    </g>
    <g id="Group_40" data-name="Group 40">
      <path id="Path_107" data-name="Path 107" d="M486.435,330.693a2.421,2.421,0,1,1-2.421-2.421A2.421,2.421,0,0,1,486.435,330.693Z" fill="#fff"/>
      <path id="Path_108" data-name="Path 108" d="M501.928,330.693a2.421,2.421,0,1,1-2.421-2.421A2.421,2.421,0,0,1,501.928,330.693Z" fill="#fff"/>
      <path id="Path_109" data-name="Path 109" d="M517.421,330.693A2.421,2.421,0,1,1,515,328.272,2.421,2.421,0,0,1,517.421,330.693Z" fill="#fff"/>
      <path id="Path_110" data-name="Path 110" d="M532.914,330.693a2.421,2.421,0,1,1-2.421-2.421A2.421,2.421,0,0,1,532.914,330.693Z" fill="#fff"/>
    </g>
  </g>
</svg>
