<svg xmlns="http://www.w3.org/2000/svg" width="221.175" height="233.632" viewBox="0 0 221.175 233.632">
  <g id="Group_32" data-name="Group 32" transform="translate(1 1)">
    <g id="Group_24" data-name="Group 24" transform="translate(209.274)">
      <circle id="Ellipse_3" data-name="Ellipse 3" cx="4.949" cy="4.949" r="4.949" transform="translate(0.002 221.733)" fill="none" stroke="#fff" stroke-linecap="round" stroke-linejoin="round" stroke-width="2"/>
      <path id="Path_51" data-name="Path 51" d="M40.037,193.242a4.949,4.949,0,1,1-4.951,4.948A4.946,4.946,0,0,1,40.037,193.242Z" transform="translate(-35.086 -3.184)" fill="none" stroke="#fff" stroke-linecap="round" stroke-linejoin="round" stroke-width="2"/>
      <circle id="Ellipse_4" data-name="Ellipse 4" cx="4.949" cy="4.949" r="4.949" transform="translate(0.002 158.381)" fill="none" stroke="#fff" stroke-linecap="round" stroke-linejoin="round" stroke-width="2"/>
      <circle id="Ellipse_5" data-name="Ellipse 5" cx="4.949" cy="4.949" r="4.949" transform="translate(0.002 126.705)" fill="none" stroke="#fff" stroke-linecap="round" stroke-linejoin="round" stroke-width="2"/>
      <circle id="Ellipse_6" data-name="Ellipse 6" cx="4.949" cy="4.949" r="4.949" transform="translate(0.002 95.028)" fill="none" stroke="#fff" stroke-linecap="round" stroke-linejoin="round" stroke-width="2"/>
      <circle id="Ellipse_7" data-name="Ellipse 7" cx="4.949" cy="4.949" r="4.949" transform="translate(0.002 63.352)" fill="none" stroke="#fff" stroke-linecap="round" stroke-linejoin="round" stroke-width="2"/>
      <path id="Path_52" data-name="Path 52" d="M40.037,237.963a4.949,4.949,0,1,1-4.951,4.951A4.948,4.948,0,0,1,40.037,237.963Z" transform="translate(-35.086 -206.287)" fill="none" stroke="#fff" stroke-linecap="round" stroke-linejoin="round" stroke-width="2"/>
      <circle id="Ellipse_8" data-name="Ellipse 8" cx="4.949" cy="4.949" r="4.949" transform="translate(0.002)" fill="none" stroke="#fff" stroke-linecap="round" stroke-linejoin="round" stroke-width="2"/>
    </g>
    <g id="Group_25" data-name="Group 25" transform="translate(179.38 31.676)">
      <circle id="Ellipse_9" data-name="Ellipse 9" cx="4.949" cy="4.949" r="4.949" transform="translate(0 190.058)" fill="none" stroke="#fff" stroke-linecap="round" stroke-linejoin="round" stroke-width="2"/>
      <path id="Path_53" data-name="Path 53" d="M48.475,193.242a4.949,4.949,0,1,1-4.948,4.948A4.949,4.949,0,0,1,48.475,193.242Z" transform="translate(-43.527 -34.86)" fill="none" stroke="#fff" stroke-linecap="round" stroke-linejoin="round" stroke-width="2"/>
      <circle id="Ellipse_10" data-name="Ellipse 10" cx="4.949" cy="4.949" r="4.949" transform="translate(0 126.705)" fill="none" stroke="#fff" stroke-linecap="round" stroke-linejoin="round" stroke-width="2"/>
      <circle id="Ellipse_11" data-name="Ellipse 11" cx="4.949" cy="4.949" r="4.949" transform="translate(0 95.029)" fill="none" stroke="#fff" stroke-linecap="round" stroke-linejoin="round" stroke-width="2"/>
      <circle id="Ellipse_12" data-name="Ellipse 12" cx="4.949" cy="4.949" r="4.949" transform="translate(0 63.353)" fill="none" stroke="#fff" stroke-linecap="round" stroke-linejoin="round" stroke-width="2"/>
      <circle id="Ellipse_13" data-name="Ellipse 13" cx="4.949" cy="4.949" r="4.949" transform="translate(0 31.677)" fill="none" stroke="#fff" stroke-linecap="round" stroke-linejoin="round" stroke-width="2"/>
      <path id="Path_54" data-name="Path 54" d="M48.475,237.963a4.949,4.949,0,1,1-4.948,4.951A4.951,4.951,0,0,1,48.475,237.963Z" transform="translate(-43.527 -237.963)" fill="none" stroke="#fff" stroke-linecap="round" stroke-linejoin="round" stroke-width="2"/>
    </g>
    <g id="Group_26" data-name="Group 26" transform="translate(149.482 63.352)">
      <circle id="Ellipse_14" data-name="Ellipse 14" cx="4.949" cy="4.949" r="4.949" transform="translate(0.001 158.381)" fill="none" stroke="#fff" stroke-linecap="round" stroke-linejoin="round" stroke-width="2"/>
      <path id="Path_55" data-name="Path 55" d="M56.92,193.242a4.949,4.949,0,1,1-4.951,4.948A4.945,4.945,0,0,1,56.92,193.242Z" transform="translate(-51.969 -66.537)" fill="none" stroke="#fff" stroke-linecap="round" stroke-linejoin="round" stroke-width="2"/>
      <circle id="Ellipse_15" data-name="Ellipse 15" cx="4.949" cy="4.949" r="4.949" transform="translate(0.001 95.029)" fill="none" stroke="#fff" stroke-linecap="round" stroke-linejoin="round" stroke-width="2"/>
      <circle id="Ellipse_16" data-name="Ellipse 16" cx="4.949" cy="4.949" r="4.949" transform="translate(0.001 63.352)" fill="none" stroke="#fff" stroke-linecap="round" stroke-linejoin="round" stroke-width="2"/>
      <circle id="Ellipse_17" data-name="Ellipse 17" cx="4.949" cy="4.949" r="4.949" transform="translate(0.001 31.676)" fill="none" stroke="#fff" stroke-linecap="round" stroke-linejoin="round" stroke-width="2"/>
      <circle id="Ellipse_18" data-name="Ellipse 18" cx="4.949" cy="4.949" r="4.949" transform="translate(0.001)" fill="none" stroke="#fff" stroke-linecap="round" stroke-linejoin="round" stroke-width="2"/>
    </g>
    <g id="Group_27" data-name="Group 27" transform="translate(119.587 95.028)">
      <circle id="Ellipse_19" data-name="Ellipse 19" cx="4.949" cy="4.949" r="4.949" transform="translate(0 126.705)" fill="none" stroke="#fff" stroke-linecap="round" stroke-linejoin="round" stroke-width="2"/>
      <path id="Path_56" data-name="Path 56" d="M65.358,193.242a4.949,4.949,0,1,1-4.948,4.948A4.949,4.949,0,0,1,65.358,193.242Z" transform="translate(-60.409 -98.213)" fill="none" stroke="#fff" stroke-linecap="round" stroke-linejoin="round" stroke-width="2"/>
      <circle id="Ellipse_20" data-name="Ellipse 20" cx="4.949" cy="4.949" r="4.949" transform="translate(0 63.352)" fill="none" stroke="#fff" stroke-linecap="round" stroke-linejoin="round" stroke-width="2"/>
      <circle id="Ellipse_21" data-name="Ellipse 21" cx="4.949" cy="4.949" r="4.949" transform="translate(0 31.676)" fill="none" stroke="#fff" stroke-linecap="round" stroke-linejoin="round" stroke-width="2"/>
      <circle id="Ellipse_22" data-name="Ellipse 22" cx="4.949" cy="4.949" r="4.949" fill="none" stroke="#fff" stroke-linecap="round" stroke-linejoin="round" stroke-width="2"/>
    </g>
    <g id="Group_28" data-name="Group 28" transform="translate(89.69 126.705)">
      <circle id="Ellipse_23" data-name="Ellipse 23" cx="4.949" cy="4.949" r="4.949" transform="translate(0 95.028)" fill="none" stroke="#fff" stroke-linecap="round" stroke-linejoin="round" stroke-width="2"/>
      <path id="Path_57" data-name="Path 57" d="M73.8,193.242a4.949,4.949,0,1,1-4.951,4.948A4.948,4.948,0,0,1,73.8,193.242Z" transform="translate(-68.852 -129.889)" fill="none" stroke="#fff" stroke-linecap="round" stroke-linejoin="round" stroke-width="2"/>
      <circle id="Ellipse_24" data-name="Ellipse 24" cx="4.949" cy="4.949" r="4.949" transform="translate(0 31.676)" fill="none" stroke="#fff" stroke-linecap="round" stroke-linejoin="round" stroke-width="2"/>
      <circle id="Ellipse_25" data-name="Ellipse 25" cx="4.949" cy="4.949" r="4.949" transform="translate(0)" fill="none" stroke="#fff" stroke-linecap="round" stroke-linejoin="round" stroke-width="2"/>
    </g>
    <g id="Group_29" data-name="Group 29" transform="translate(59.792 158.382)">
      <path id="Path_58" data-name="Path 58" d="M82.244,184.3a4.949,4.949,0,1,1-4.951,4.951A4.952,4.952,0,0,1,82.244,184.3Z" transform="translate(-77.293 -120.947)" fill="none" stroke="#fff" stroke-linecap="round" stroke-linejoin="round" stroke-width="2"/>
      <path id="Path_59" data-name="Path 59" d="M82.244,193.242a4.949,4.949,0,1,1-4.951,4.948A4.949,4.949,0,0,1,82.244,193.242Z" transform="translate(-77.293 -161.566)" fill="none" stroke="#fff" stroke-linecap="round" stroke-linejoin="round" stroke-width="2"/>
      <path id="Path_60" data-name="Path 60" d="M82.244,202.186a4.949,4.949,0,1,1-4.951,4.948A4.948,4.948,0,0,1,82.244,202.186Z" transform="translate(-77.293 -202.186)" fill="none" stroke="#fff" stroke-linecap="round" stroke-linejoin="round" stroke-width="2"/>
    </g>
    <g id="Group_30" data-name="Group 30" transform="translate(29.898 190.058)">
      <path id="Path_61" data-name="Path 61" d="M90.683,184.3a4.949,4.949,0,1,1-4.948,4.951A4.952,4.952,0,0,1,90.683,184.3Z" transform="translate(-85.735 -152.622)" fill="none" stroke="#fff" stroke-linecap="round" stroke-linejoin="round" stroke-width="2"/>
      <path id="Path_62" data-name="Path 62" d="M90.683,193.242a4.949,4.949,0,1,1-4.948,4.948A4.949,4.949,0,0,1,90.683,193.242Z" transform="translate(-85.735 -193.242)" fill="none" stroke="#fff" stroke-linecap="round" stroke-linejoin="round" stroke-width="2"/>
    </g>
    <g id="Group_31" data-name="Group 31" transform="translate(0 221.733)">
      <path id="Path_63" data-name="Path 63" d="M99.128,184.3a4.949,4.949,0,1,1-4.951,4.951A4.949,4.949,0,0,1,99.128,184.3Z" transform="translate(-94.177 -184.298)" fill="none" stroke="#fff" stroke-linecap="round" stroke-linejoin="round" stroke-width="2"/>
    </g>
  </g>
</svg>
