<svg xmlns="http://www.w3.org/2000/svg" width="17.438" height="17.438" viewBox="0 0 17.438 17.438"><path d="M9,.281A8.719,8.719,0,1,0,17.719,9,8.729,8.729,0,0,0,9,.281ZM14.765,4.3a7.412,7.412,0,0,1,1.682,4.639,17.4,17.4,0,0,0-5.186-.24c-.2-.494-.393-.928-.655-1.463A9.92,9.92,0,0,0,14.765,4.3Zm-.828-.861a8.408,8.408,0,0,1-3.9,2.69,39.751,39.751,0,0,0-2.779-4.36,7.428,7.428,0,0,1,6.682,1.67Zm-8.1-1.169A47.518,47.518,0,0,1,8.595,6.579a27.778,27.778,0,0,1-6.885.907A7.474,7.474,0,0,1,5.834,2.272ZM1.553,9.011c0-.076,0-.152,0-.228A27.471,27.471,0,0,0,9.21,7.724c.213.417.417.841.6,1.264a11.535,11.535,0,0,0-6.347,5A7.417,7.417,0,0,1,1.553,9.011Zm2.876,5.875a10.475,10.475,0,0,1,5.891-4.667,30.956,30.956,0,0,1,1.589,5.647,7.432,7.432,0,0,1-7.48-.98Zm8.732.3a32.142,32.142,0,0,0-1.447-5.31,10.931,10.931,0,0,1,4.639.318,7.46,7.46,0,0,1-3.192,4.991Z" transform="translate(-0.281 -0.281)" fill="#457b9d"/></svg>