<svg xmlns="http://www.w3.org/2000/svg" width="13.505" height="13.503" viewBox="0 0 13.505 13.503"><path d="M15.36,12.825a11.343,11.343,0,0,0-2.37-1.586c-.71-.341-.97-.334-1.473.028-.418.3-.689.584-1.171.478a6.984,6.984,0,0,1-2.352-1.74,6.934,6.934,0,0,1-1.74-2.352c-.1-.485.179-.752.478-1.171.362-.5.373-.763.028-1.473A11.119,11.119,0,0,0,5.175,2.64c-.517-.517-.633-.4-.918-.3a5.221,5.221,0,0,0-.84.446A2.535,2.535,0,0,0,2.408,3.85c-.2.432-.432,1.238.749,3.34a18.636,18.636,0,0,0,3.277,4.37h0l0,0,0,0h0a18.709,18.709,0,0,0,4.37,3.277c2.1,1.181,2.907.949,3.34.749a2.492,2.492,0,0,0,1.065-1.009,5.221,5.221,0,0,0,.446-.84C15.764,13.458,15.88,13.342,15.36,12.825Z" transform="translate(-2.245 -2.251)" fill="#457b9d"/></svg>