<svg xmlns="http://www.w3.org/2000/svg" width="13.5" height="17.547" viewBox="0 0 13.5 17.547"><path d="M7.172.229C3.565.229,0,2.633,0,6.525,0,9,1.392,10.406,2.236,10.406c.348,0,.548-.97.548-1.245,0-.327-.833-1.023-.833-2.384a4.751,4.751,0,0,1,4.936-4.83c2.394,0,4.166,1.361,4.166,3.86,0,1.867-.749,5.368-3.175,5.368a1.561,1.561,0,0,1-1.624-1.54c0-1.329.928-2.616.928-3.987,0-2.327-3.3-1.905-3.3.907a4.13,4.13,0,0,0,.338,1.782c-.485,2.088-1.477,5.2-1.477,7.351,0,.664.095,1.318.158,1.983.12.134.06.12.243.053,1.772-2.426,1.709-2.9,2.51-6.075a2.851,2.851,0,0,0,2.436,1.266C11.823,12.916,13.5,9.278,13.5,6,13.5,2.507,10.484.229,7.172.229Z" transform="translate(0 -0.229)" fill="#457b9d"/></svg>