<svg xmlns="http://www.w3.org/2000/svg" width="94.368" height="81" viewBox="0 0 94.368 81"><g transform="translate(0 -33.992)"><g transform="translate(0 33.992)"><g transform="translate(0 0)"><path d="M83.356,61.1v-.354a26.742,26.742,0,0,0-49.05-14.758,18.9,18.9,0,0,0-24.882,17.9v.4a12.584,12.584,0,0,0,3.146,24.764H40.78a1.573,1.573,0,1,0,0-3.146H12.569a9.438,9.438,0,0,1-1.285-18.78,1.573,1.573,0,0,0,1.358-1.694c-.042-.507-.072-1.027-.072-1.548a15.751,15.751,0,0,1,21.782-14.53,1.573,1.573,0,0,0,1.955-.648,23.6,23.6,0,0,1,43.9,12.032c0,.521-.014,1.026-.057,1.532a1.573,1.573,0,0,0,1.383,1.7A11.011,11.011,0,0,1,80.21,85.915a11.788,11.788,0,0,1-1.416-.083,1.378,1.378,0,0,0-.667.083H53.411a1.573,1.573,0,0,0,0,3.146H78.636a1.35,1.35,0,0,0,.356-.049c.4.033.805.049,1.218.049A14.157,14.157,0,0,0,83.356,61.1Z" transform="translate(0 -33.992)" fill="#fff"/><path d="M191.278,221.124l-10.662,10.662V187.629a1.573,1.573,0,0,0-3.146,0v44.157l-10.662-10.662a1.573,1.573,0,0,0-2.224,2.224L177.931,236.7a1.573,1.573,0,0,0,2.224,0L193.5,223.348a1.573,1.573,0,0,0-2.224-2.224Z" transform="translate(-131.867 -156.156)" fill="#fff"/></g></g></g></svg>