<svg xmlns="http://www.w3.org/2000/svg" width="118.669" height="74.422" viewBox="0 0 118.669 74.422"><g transform="translate(-1.999 -15.05)"><path d="M50.784,50.959a1.7,1.7,0,0,1-1.373-2.687L55.6,39.694a1.7,1.7,0,1,1,2.75,1.983L52.16,50.255A1.7,1.7,0,0,1,50.784,50.959Z" transform="translate(32.74 16.644)" fill="#fff"/><path d="M38.921,89.472a1.7,1.7,0,0,1-1.6-1.132l-12.291-35L2.751,38.4A1.7,1.7,0,0,1,3.4,35.317L118.68,15.076a1.7,1.7,0,0,1,1.67,2.66L107.194,35.986A1.7,1.7,0,1,1,104.443,34L115.16,19.129,8.142,37.928,27.39,50.837a1.7,1.7,0,0,1,.654.848l9.232,26.29.086-17.142a1.7,1.7,0,0,1,2.628-1.407l31.276,20.6L77.2,71.8a1.7,1.7,0,1,1,2.75,1.983l-6.883,9.544a1.7,1.7,0,0,1-2.307.424L40.739,63.975l-.12,23.81A1.7,1.7,0,0,1,39.2,89.45,1.749,1.749,0,0,1,38.921,89.472Z" transform="translate(0 0)" fill="#fff"/><path d="M57.364,41.839a1.7,1.7,0,0,1-1.375-2.685l6.171-8.578a1.7,1.7,0,0,1,2.753,1.98l-6.171,8.578A1.7,1.7,0,0,1,57.364,41.839Z" transform="translate(37.315 10.304)" fill="#fff"/><path d="M29.737,62.537a1.7,1.7,0,0,1-.82-3.179L87.335,27.121,17.72,53.83A1.7,1.7,0,1,1,16.5,50.665l92.534-35.5a1.7,1.7,0,0,1,1.426,3.067l-79.909,44.1a1.7,1.7,0,0,1-.817.21Z" transform="translate(9.328 0.002)" fill="#fff"/><path d="M24.481,66.488A1.7,1.7,0,0,1,23.4,63.482l18.243-15A1.7,1.7,0,0,1,43.8,51.1l-18.244,15a1.7,1.7,0,0,1-1.075.387Z" transform="translate(14.45 22.977)" fill="#fff"/></g></svg>